# xmcd
#
# Track frame offsets: 
#        150
#        18155
#        32567
#        51464
#        64808
#        80419
#        98558
#        118237
#        127376
#        145817
#        176759
#        196426
#
# Disc length: 2870 seconds
#
# Revision: 0
# Processed by: cddbd v1.5.2PL0 Copyright (c) Steve Scherf et al.
# Submitted via: ExactAudioCopyFreeDBPlugin 1.0
#
DISCID=ad0b340c
DTITLE=Tom Dikon and The Jukes Revival - Been a Long Time Baby
DYEAR=2016
DGENRE=Blues
TTITLE0=Been a Long Time Baby
TTITLE1=Hilton Hop
TTITLE2=Hipshake
TTITLE3=I Saw You
TTITLE4=Watch Your Step
TTITLE5=Nevermind
TTITLE6=Can't Hold Out Too Long
TTITLE7=Tidewater Stomp
TTITLE8=Try to Make a Livin'
TTITLE9=Mind Over Matter
TTITLE10=Wouldn't You Know It
TTITLE11=Ooh Wee Baby
EXTD=
EXTT0=
EXTT1=
EXTT2=
EXTT3=
EXTT4=
EXTT5=
EXTT6=
EXTT7=
EXTT8=
EXTT9=
EXTT10=
EXTT11=
PLAYORDER=
